<svg width="11" height="15" viewBox="0 0 11 15" fill="none" xmlns="http://www.w3.org/2000/svg">
    <path
        d="M4.49581 3.87125C4.65876 3.36974 5.36828 3.36974 5.53123 3.87126L6.14424 5.75792C6.21712 5.9822 6.42612 6.13406 6.66195 6.13406L8.64571 6.13406C9.17303 6.13406 9.39228 6.80884 8.96567 7.1188L7.36078 8.28482C7.16999 8.42343 7.09015 8.66914 7.16303 8.89342L7.77604 10.7801C7.939 11.2816 7.36499 11.6986 6.93837 11.3887L5.33348 10.2227C5.14269 10.084 4.88435 10.084 4.69356 10.2227L3.08867 11.3887C2.66205 11.6986 2.08804 11.2816 2.251 10.7801L2.86401 8.89342C2.93688 8.66914 2.85705 8.42343 2.66626 8.28482L1.06137 7.1188C0.634755 6.80884 0.854007 6.13406 1.38133 6.13406L3.36509 6.13406C3.60091 6.13406 3.80992 5.9822 3.8828 5.75792L4.49581 3.87125Z"
        fill="black" />
</svg>